<svg xmlns="http://www.w3.org/2000/svg" xmlns:xlink="http://www.w3.org/1999/xlink" version="1.1" id="Layer_1" x="0px" y="0px" width="90.0px" height="90px" viewBox="0 0 505 505" enable-background="new 0 0 500 500" xml:space="preserve">
<path d="M495,496.333H11v-484h484V496.333z M13,494.333h480v-480H13V494.333z"/>
<g>
	<defs>
		<rect id="SVGID_1_" x="12" y="13.333" width="482" height="482"/>
	</defs>
	<clipPath id="SVGID_2_">
		<use xlink:href="#SVGID_1_" overflow="visible"/>
	</clipPath>
	<g clip-path="url(#SVGID_2_)">
		<path d="M171.352,253.787c-44.627,0-80.934-36.307-80.934-80.934c0-44.626,36.307-80.933,80.934-80.933    c44.626,0,80.933,36.307,80.933,80.933C252.284,217.48,215.978,253.787,171.352,253.787z M171.352,93.92    c-43.524,0-78.934,35.409-78.934,78.933s35.409,78.934,78.934,78.934c43.523,0,78.933-35.41,78.933-78.934    S214.875,93.92,171.352,93.92z"/>
		<path d="M331.648,253.787c-44.627,0-80.934-36.307-80.934-80.934c0-44.626,36.307-80.933,80.934-80.933    s80.934,36.307,80.934,80.933C412.582,217.48,376.275,253.787,331.648,253.787z M331.648,93.92    c-43.524,0-78.934,35.409-78.934,78.933s35.409,78.934,78.934,78.934s78.934-35.41,78.934-78.934S375.173,93.92,331.648,93.92z"/>
		<path d="M251.963,333.472c-44.626,0-80.933-36.307-80.933-80.934c0-44.626,36.307-80.933,80.933-80.933    c44.627,0,80.934,36.307,80.934,80.933C332.896,297.166,296.59,333.472,251.963,333.472z M251.963,173.605    c-43.523,0-78.933,35.409-78.933,78.933s35.409,78.934,78.933,78.934c43.524,0,78.934-35.41,78.934-78.934    S295.487,173.605,251.963,173.605z"/>
		<path d="M251.963,274.924c-12.343,0-22.385-10.042-22.385-22.385c0-12.343,10.042-22.385,22.385-22.385    c12.344,0,22.386,10.042,22.386,22.385C274.349,264.882,264.307,274.924,251.963,274.924z M251.963,232.154    c-11.24,0-20.385,9.145-20.385,20.385s9.145,20.385,20.385,20.385c11.241,0,20.386-9.145,20.386-20.385    S263.204,232.154,251.963,232.154z"/>
		<path d="M91.666,333.472c-44.627,0-80.934-36.307-80.934-80.934c0-44.626,36.307-80.933,80.934-80.933    s80.934,36.307,80.934,80.933C172.6,297.166,136.293,333.472,91.666,333.472z M91.666,173.605    c-43.524,0-78.934,35.409-78.934,78.933s35.409,78.934,78.934,78.934s78.934-35.41,78.934-78.934S135.19,173.605,91.666,173.605z"/>
		<path d="M411.334,333.472c-44.627,0-80.934-36.307-80.934-80.934c0-44.626,36.307-80.933,80.934-80.933    s80.934,36.307,80.934,80.933C492.268,297.166,455.961,333.472,411.334,333.472z M411.334,173.605    c-43.524,0-78.934,35.409-78.934,78.933s35.409,78.934,78.934,78.934s78.934-35.41,78.934-78.934S454.858,173.605,411.334,173.605    z"/>
		<path d="M251.963,493.77c-44.626,0-80.933-36.307-80.933-80.934c0-44.626,36.307-80.933,80.933-80.933    c44.627,0,80.934,36.307,80.934,80.933C332.896,457.463,296.59,493.77,251.963,493.77z M251.963,333.903    c-43.523,0-78.933,35.409-78.933,78.933s35.409,78.934,78.933,78.934c43.524,0,78.934-35.41,78.934-78.934    S295.487,333.903,251.963,333.903z"/>
		<path d="M251.963,174.101c-44.626,0-80.933-36.307-80.933-80.933c0-44.627,36.307-80.934,80.933-80.934    c44.627,0,80.934,36.307,80.934,80.934C332.896,137.794,296.59,174.101,251.963,174.101z M251.963,14.234    c-43.523,0-78.933,35.41-78.933,78.934s35.409,78.933,78.933,78.933c43.524,0,78.934-35.409,78.934-78.933    S295.487,14.234,251.963,14.234z"/>
		<path d="M388.17,469.679c-44.627,0-80.934-36.307-80.934-80.934c0-44.626,36.307-80.933,80.934-80.933    s80.934,36.307,80.934,80.933C469.104,433.372,432.797,469.679,388.17,469.679z M388.17,309.812    c-43.524,0-78.934,35.409-78.934,78.933s35.409,78.934,78.934,78.934s78.934-35.41,78.934-78.934S431.694,309.812,388.17,309.812z    "/>
		<path d="M115.757,197.266c-44.627,0-80.934-36.307-80.934-80.934c0-44.626,36.307-80.933,80.934-80.933    s80.934,36.307,80.934,80.933C196.69,160.959,160.384,197.266,115.757,197.266z M115.757,37.399    c-43.524,0-78.934,35.409-78.934,78.933s35.409,78.934,78.934,78.934s78.934-35.41,78.934-78.934S159.281,37.399,115.757,37.399z"/>
		<path d="M388.17,197.266c-44.627,0-80.934-36.307-80.934-80.934c0-44.626,36.307-80.933,80.934-80.933    s80.934,36.307,80.934,80.933C469.104,160.959,432.797,197.266,388.17,197.266z M388.17,37.399    c-43.524,0-78.934,35.409-78.934,78.933s35.409,78.934,78.934,78.934s78.934-35.41,78.934-78.934S431.694,37.399,388.17,37.399z"/>
		<path d="M115.757,469.679c-44.627,0-80.934-36.307-80.934-80.934c0-44.626,36.307-80.933,80.934-80.933    s80.934,36.307,80.934,80.933C196.69,433.372,160.384,469.679,115.757,469.679z M115.757,309.812    c-43.524,0-78.934,35.409-78.934,78.933s35.409,78.934,78.934,78.934s78.934-35.41,78.934-78.934S159.281,309.812,115.757,309.812    z"/>
		<path d="M171.352,414.084c-44.627,0-80.934-36.307-80.934-80.933c0-44.627,36.307-80.934,80.934-80.934    c44.626,0,80.933,36.307,80.933,80.934C252.284,377.777,215.978,414.084,171.352,414.084z M171.352,254.217    c-43.524,0-78.934,35.41-78.934,78.934s35.409,78.933,78.934,78.933c43.523,0,78.933-35.409,78.933-78.933    S214.875,254.217,171.352,254.217z"/>
		<path d="M331.648,414.084c-44.627,0-80.934-36.307-80.934-80.933c0-44.627,36.307-80.934,80.934-80.934    s80.934,36.307,80.934,80.934C412.582,377.777,376.275,414.084,331.648,414.084z M331.648,254.217    c-43.524,0-78.934,35.41-78.934,78.934s35.409,78.933,78.934,78.933s78.934-35.409,78.934-78.933S375.173,254.217,331.648,254.217    z"/>
		<rect x="6" y="170.333" width="495" height="2"/>
		<rect x="6" y="252.333" width="495" height="2"/>
		<rect x="252" y="6.333" width="2" height="495"/>
		<rect x="-90.329" y="252.735" transform="matrix(0.7071 0.7071 -0.7071 0.7071 253.4906 -104.5113)" width="686.462" height="2"/>
		<rect x="251.902" y="-89.497" transform="matrix(0.7071 0.7071 -0.7071 0.7071 253.4905 -104.5114)" width="2" height="686.462"/>
		<rect x="6" y="331.333" width="495" height="2"/>
		<rect x="331" y="4.333" width="2" height="495"/>
		<rect x="170" y="4.333" width="2" height="495"/>
	</g>
</g>
</svg>